# Blender v2.93.2 OBJ File: ''
# www.blender.org
o Cylinder
v 0.363887 0.022159 -0.445446
v -0.436113 0.022136 -0.445446
v 0.363887 0.119705 -0.435839
v -0.436113 0.119729 -0.435839
v 0.363887 0.213501 -0.407386
v -0.436113 0.213572 -0.407386
v 0.363887 0.299945 -0.361181
v -0.436113 0.300058 -0.361181
v 0.363887 0.375713 -0.299000
v -0.436113 0.375863 -0.299000
v 0.363887 0.438075 -0.223232
v -0.436113 0.438075 -0.223232
v 0.363887 0.484303 -0.136788
v -0.436113 0.484303 -0.136788
v 0.363887 0.512770 -0.042992
v -0.436113 0.512770 -0.042992
v 0.363887 0.522382 0.054554
v -0.436113 0.522382 0.054554
v 0.363887 0.512770 0.152099
v -0.436113 0.512770 0.152099
v 0.363887 0.484303 0.245895
v -0.436113 0.484303 0.245895
v 0.363887 0.438075 0.332339
v -0.436113 0.438075 0.332339
v 0.363887 0.375863 0.408107
v -0.436113 0.375863 0.408107
v 0.363887 0.300058 0.470288
v -0.436113 0.300058 0.470288
v 0.363887 0.213572 0.516493
v -0.436113 0.213572 0.516493
v 0.363887 0.119729 0.544946
v -0.436113 0.119729 0.544946
v 0.363887 0.022136 0.554554
v -0.436113 0.022136 0.554554
v 0.363887 -0.075457 0.544946
v -0.436113 -0.075457 0.544946
v 0.363887 -0.169299 0.516493
v -0.436113 -0.169299 0.516493
v 0.363887 -0.255785 0.470288
v -0.436113 -0.255785 0.470288
v 0.363887 -0.331591 0.408107
v -0.436113 -0.331591 0.408107
v 0.363887 -0.393803 0.332339
v -0.436113 -0.393803 0.332339
v 0.363887 -0.440030 0.245895
v -0.436113 -0.440031 0.245895
v 0.363887 -0.468233 0.152099
v -0.436113 -0.468497 0.152099
v 0.363887 -0.477841 0.054554
v -0.436113 -0.478109 0.054554
v 0.363887 -0.468233 -0.042992
v -0.436113 -0.468497 -0.042992
v 0.363887 -0.439780 -0.136788
v -0.436113 -0.440031 -0.136788
v 0.363887 -0.393575 -0.223231
v -0.436113 -0.393803 -0.223231
v 0.363887 -0.331394 -0.299000
v -0.436113 -0.331591 -0.299000
v 0.363887 -0.255626 -0.361181
v -0.436113 -0.255785 -0.361181
v 0.363887 -0.169182 -0.407386
v -0.436113 -0.169299 -0.407386
v 0.363887 -0.075386 -0.435839
v -0.436113 -0.075457 -0.435839
vt 1.000000 1.000000
vt 0.968750 0.500000
vt 1.000000 0.500000
vt 0.968750 1.000000
vt 0.937500 0.500000
vt 0.937500 1.000000
vt 0.906250 0.500000
vt 0.906250 1.000000
vt 0.875000 0.500000
vt 0.875000 1.000000
vt 0.843750 0.500000
vt 0.843750 1.000000
vt 0.812500 0.500000
vt 0.812500 1.000000
vt 0.781250 0.500000
vt 0.750000 1.000000
vt 0.750000 0.500000
vt 0.718750 0.500000
vt 0.718750 1.000000
vt 0.687500 0.500000
vt 0.687500 1.000000
vt 0.656250 0.500000
vt 0.656250 1.000000
vt 0.625000 0.500000
vt 0.625000 1.000000
vt 0.593750 0.500000
vt 0.593750 1.000000
vt 0.562500 0.500000
vt 0.562500 1.000000
vt 0.531250 0.500000
vt 0.500000 1.000000
vt 0.500000 0.500000
vt 0.468750 0.500000
vt 0.468750 1.000000
vt 0.437500 0.500000
vt 0.437500 1.000000
vt 0.406250 0.500000
vt 0.375000 1.000000
vt 0.375000 0.500000
vt 0.343750 0.500000
vt 0.343750 1.000000
vt 0.312500 0.500000
vt 0.312500 1.000000
vt 0.281250 0.500000
vt 0.281250 1.000000
vt 0.250000 0.500000
vt 0.218750 1.000000
vt 0.218750 0.500000
vt 0.187500 1.000000
vt 0.187500 0.500000
vt 0.156250 1.000000
vt 0.156250 0.500000
vt 0.125000 1.000000
vt 0.125000 0.500000
vt 0.093750 1.000000
vt 0.093750 0.500000
vt 0.062500 1.000000
vt 0.062500 0.500000
vt 0.383337 0.449553
vt 0.341844 0.471731
vt 0.419706 0.080294
vt 0.031250 1.000000
vt 0.031250 0.500000
vt 0.000000 1.000000
vt 0.000000 0.500000
vt 0.514612 0.203178
vt 0.550447 0.383337
vt 0.703178 0.485388
vt 0.781250 1.000000
vt 0.531250 1.000000
vt 0.406250 1.000000
vt 0.250000 1.000000
vt 0.296822 0.485388
vt 0.250000 0.010000
vt 0.250000 0.490000
vt 0.203178 0.485388
vt 0.158156 0.028269
vt 0.158156 0.471731
vt 0.116663 0.449553
vt 0.080294 0.419706
vt 0.050447 0.383337
vt 0.080294 0.080294
vt 0.028269 0.341844
vt 0.014612 0.296822
vt 0.010000 0.250000
vt 0.014612 0.203178
vt 0.028269 0.158156
vt 0.050447 0.116663
vt 0.116663 0.050447
vt 0.203178 0.014612
vt 0.296822 0.014612
vt 0.341844 0.028269
vt 0.383337 0.050447
vt 0.449553 0.116663
vt 0.419706 0.419706
vt 0.471731 0.158156
vt 0.485388 0.203178
vt 0.490000 0.250000
vt 0.485388 0.296822
vt 0.471731 0.341844
vt 0.449553 0.383337
vt 0.750000 0.490000
vt 0.796822 0.485388
vt 0.841844 0.471731
vt 0.883337 0.449553
vt 0.919706 0.419706
vt 0.796822 0.014612
vt 0.949553 0.383337
vt 0.971731 0.341844
vt 0.985388 0.296822
vt 0.990000 0.250000
vt 0.985388 0.203178
vt 0.971731 0.158156
vt 0.949553 0.116663
vt 0.919706 0.080294
vt 0.883337 0.050447
vt 0.841844 0.028269
vt 0.750000 0.010000
vt 0.703178 0.014612
vt 0.658156 0.028269
vt 0.616663 0.050447
vt 0.580294 0.080294
vt 0.550447 0.116663
vt 0.528269 0.158156
vt 0.510000 0.250000
vt 0.514612 0.296822
vt 0.528269 0.341844
vt 0.580294 0.419706
vt 0.616663 0.449553
vt 0.658156 0.471731
vn -0.0000 0.0980 -0.9952
vn 0.0000 0.2903 -0.9569
vn 0.0000 0.4714 -0.8819
vn 0.0001 0.6344 -0.7730
vn 0.0001 0.7721 -0.6355
vn -0.0000 0.8818 -0.4716
vn -0.0000 0.9569 -0.2904
vn 0.0000 0.9952 -0.0981
vn 0.0000 0.9952 0.0981
vn -0.0000 0.9569 0.2904
vn -0.0000 0.8818 0.4716
vn -0.0000 0.7729 0.6346
vn 0.0000 0.6342 0.7732
vn 0.0000 0.4712 0.8820
vn 0.0000 0.2902 0.9570
vn -0.0000 0.0980 0.9952
vn 0.0000 -0.0980 0.9952
vn 0.0000 -0.2902 0.9570
vn 0.0000 -0.4712 0.8820
vn 0.0000 -0.6342 0.7732
vn 0.0000 -0.7729 0.6346
vn 0.0000 -0.8818 0.4716
vn 0.0000 -0.9576 0.2879
vn 0.0003 -0.9952 0.0980
vn 0.0003 -0.9952 -0.0980
vn 0.0003 -0.9569 -0.2903
vn 0.0003 -0.8819 -0.4714
vn 0.0002 -0.7730 -0.6344
vn 0.0001 -0.6344 -0.7730
vn 0.0001 -0.4714 -0.8819
vn -1.0000 0.0000 -0.0000
vn 0.0000 -0.2903 -0.9569
vn 0.0000 -0.0980 -0.9952
vn 1.0000 -0.0000 0.0000
vn 0.0000 0.2902 -0.9570
vn 0.0001 0.4712 -0.8820
vn 0.0001 0.6342 -0.7732
vn -0.0000 0.7729 -0.6346
vn 0.0003 -0.9569 0.2904
vn 0.0003 -0.9952 0.0981
vn 0.0003 -0.9952 -0.0981
vn 0.0003 -0.9569 -0.2904
vn 0.0003 -0.8818 -0.4716
vn 0.0002 -0.7729 -0.6346
vn 0.0002 -0.6342 -0.7732
vn 0.0001 -0.4712 -0.8820
vn 0.0000 -0.2902 -0.9570
s off
f 2/1/1 3/2/1 1/3/1
f 4/4/2 5/5/2 3/2/2
f 6/6/3 7/7/3 5/5/3
f 8/8/4 9/9/4 7/7/4
f 10/10/5 11/11/5 9/9/5
f 12/12/6 13/13/6 11/11/6
f 14/14/7 15/15/7 13/13/7
f 15/15/8 18/16/8 17/17/8
f 18/16/9 19/18/9 17/17/9
f 20/19/10 21/20/10 19/18/10
f 22/21/11 23/22/11 21/20/11
f 24/23/12 25/24/12 23/22/12
f 26/25/13 27/26/13 25/24/13
f 28/27/14 29/28/14 27/26/14
f 30/29/15 31/30/15 29/28/15
f 31/30/16 34/31/16 33/32/16
f 34/31/17 35/33/17 33/32/17
f 36/34/18 37/35/18 35/33/18
f 38/36/19 39/37/19 37/35/19
f 39/37/20 42/38/20 41/39/20
f 42/38/21 43/40/21 41/39/21
f 44/41/22 45/42/22 43/40/22
f 46/43/23 47/44/23 45/42/23
f 48/45/24 49/46/24 47/44/24
f 49/46/25 52/47/25 51/48/25
f 51/48/26 54/49/26 53/50/26
f 53/50/27 56/51/27 55/52/27
f 55/52/28 58/53/28 57/54/28
f 57/54/29 60/55/29 59/56/29
f 59/56/30 62/57/30 61/58/30
f 8/59/31 6/60/31 26/61/31
f 61/58/32 64/62/32 63/63/32
f 63/63/33 2/64/33 1/65/33
f 47/66/34 55/67/34 63/68/34
f 2/1/1 4/4/1 3/2/1
f 4/4/35 6/6/35 5/5/35
f 6/6/36 8/8/36 7/7/36
f 8/8/37 10/10/37 9/9/37
f 10/10/38 12/12/38 11/11/38
f 12/12/6 14/14/6 13/13/6
f 14/14/7 16/69/7 15/15/7
f 15/15/8 16/69/8 18/16/8
f 18/16/9 20/19/9 19/18/9
f 20/19/10 22/21/10 21/20/10
f 22/21/11 24/23/11 23/22/11
f 24/23/12 26/25/12 25/24/12
f 26/25/13 28/27/13 27/26/13
f 28/27/14 30/29/14 29/28/14
f 30/29/15 32/70/15 31/30/15
f 31/30/16 32/70/16 34/31/16
f 34/31/17 36/34/17 35/33/17
f 36/34/18 38/36/18 37/35/18
f 38/36/19 40/71/19 39/37/19
f 39/37/20 40/71/20 42/38/20
f 42/38/21 44/41/21 43/40/21
f 44/41/22 46/43/22 45/42/22
f 46/43/39 48/45/39 47/44/39
f 48/45/40 50/72/40 49/46/40
f 49/46/41 50/72/41 52/47/41
f 51/48/42 52/47/42 54/49/42
f 53/50/43 54/49/43 56/51/43
f 55/52/44 56/51/44 58/53/44
f 57/54/45 58/53/45 60/55/45
f 59/56/46 60/55/46 62/57/46
f 6/60/31 4/73/31 34/74/31
f 4/73/31 2/75/31 34/74/31
f 2/75/31 64/76/31 38/77/31
f 64/76/31 62/78/31 38/77/31
f 62/78/31 60/79/31 38/77/31
f 60/79/31 58/80/31 38/77/31
f 58/80/31 56/81/31 42/82/31
f 56/81/31 54/83/31 42/82/31
f 54/83/31 52/84/31 50/85/31
f 50/85/31 48/86/31 54/83/31
f 48/86/31 46/87/31 54/83/31
f 46/87/31 44/88/31 54/83/31
f 44/88/31 42/82/31 54/83/31
f 42/82/31 40/89/31 58/80/31
f 40/89/31 38/77/31 58/80/31
f 38/77/31 36/90/31 2/75/31
f 36/90/31 34/74/31 2/75/31
f 34/74/31 32/91/31 6/60/31
f 32/91/31 30/92/31 6/60/31
f 30/92/31 28/93/31 6/60/31
f 28/93/31 26/61/31 6/60/31
f 26/61/31 24/94/31 10/95/31
f 24/94/31 22/96/31 10/95/31
f 22/96/31 20/97/31 18/98/31
f 18/98/31 16/99/31 22/96/31
f 16/99/31 14/100/31 22/96/31
f 14/100/31 12/101/31 22/96/31
f 12/101/31 10/95/31 22/96/31
f 10/95/31 8/59/31 26/61/31
f 61/58/47 62/57/47 64/62/47
f 63/63/33 64/62/33 2/64/33
f 63/68/34 1/102/34 3/103/34
f 3/103/34 5/104/34 7/105/34
f 7/105/34 9/106/34 31/107/34
f 9/106/34 11/108/34 13/109/34
f 15/110/34 9/106/34 13/109/34
f 15/110/34 17/111/34 9/106/34
f 17/111/34 19/112/34 9/106/34
f 19/112/34 21/113/34 9/106/34
f 21/113/34 23/114/34 9/106/34
f 23/114/34 25/115/34 9/106/34
f 25/115/34 27/116/34 9/106/34
f 27/116/34 29/117/34 9/106/34
f 29/117/34 31/107/34 9/106/34
f 31/107/34 33/118/34 63/68/34
f 33/118/34 35/119/34 47/66/34
f 35/119/34 37/120/34 47/66/34
f 37/120/34 39/121/34 47/66/34
f 39/121/34 41/122/34 47/66/34
f 41/122/34 43/123/34 47/66/34
f 43/123/34 45/124/34 47/66/34
f 47/66/34 49/125/34 55/67/34
f 49/125/34 51/126/34 55/67/34
f 51/126/34 53/127/34 55/67/34
f 55/67/34 57/128/34 59/129/34
f 59/129/34 61/130/34 63/68/34
f 63/68/34 3/103/34 7/105/34
f 33/118/34 47/66/34 63/68/34
f 55/67/34 59/129/34 63/68/34
f 63/68/34 7/105/34 31/107/34
